<?xml version="1.0" encoding="iso-8859-1"?>
<!-- Generator: Adobe Illustrator 19.0.0, SVG Export Plug-In . SVG Version: 6.00 Build 0)  -->
<svg version="1.1" id="Capa_1" xmlns="http://www.w3.org/2000/svg" xmlns:xlink="http://www.w3.org/1999/xlink" x="0px" y="0px"
	 viewBox="0 0 480.125 480.125" style="enable-background:new 0 0 480.125 480.125;" xml:space="preserve">
<path style="fill:#313740;" d="M311.262,97.725l-63.2-16v-2.4c21.6-4.8,36-25.6,31.2-47.2s-25.6-36-47.2-31.2c-18.4,4-32,20-32,39.2
	h16c0-13.6,10.4-24,24-24s24,10.4,24,24s-10.4,24-24,24c-4.8,0-8,3.2-8,8v9.6l-66.4,16.8l8.8,14.4l65.6-16.8l64,16L311.262,97.725z"
	/>
<polyline style="fill:#589137;" points="96.062,184.125 96.062,480.125 320.062,480.125 384.062,416.125 384.062,184.125 "/>
<path style="fill:#3E606F;" d="M32.062,416.125h176c17.6,0,32,14.4,32,32l0,0c0,17.6-14.4,32-32,32h-176c-17.6,0-32-14.4-32-32l0,0
	C0.062,430.525,14.462,416.125,32.062,416.125z"/>
<path style="fill:#91AAB4;" d="M32.062,352.125h176c17.6,0,32,14.4,32,32l0,0c0,17.6-14.4,32-32,32h-176c-17.6,0-32-14.4-32-32l0,0
	C0.062,366.525,14.462,352.125,32.062,352.125z"/>
<path style="fill:#3E606F;" d="M32.062,288.125h176c17.6,0,32,14.4,32,32l0,0c0,17.6-14.4,32-32,32h-176c-17.6,0-32-14.4-32-32l0,0
	C0.062,302.525,14.462,288.125,32.062,288.125z"/>
<path style="fill:#589137;" d="M120.062,184.125l-56,56l-64-64l80-80l88-16c0,34.4,32,63.2,72,63.2s72-28,72-63.2l88,16l80,80
	l-64,64l-56-56"/>
<polygon style="fill:#406928;" points="320.062,480.125 384.062,416.125 320.062,416.125 "/>
<rect x="24.062" y="312.125" style="fill:#91AAB4;" width="192" height="16"/>
<rect x="24.062" y="376.125" style="fill:#3E606F;" width="184" height="16"/>
<rect x="24.062" y="440.125" style="fill:#91AAB4;" width="184" height="16"/>
<g>
</g>
<g>
</g>
<g>
</g>
<g>
</g>
<g>
</g>
<g>
</g>
<g>
</g>
<g>
</g>
<g>
</g>
<g>
</g>
<g>
</g>
<g>
</g>
<g>
</g>
<g>
</g>
<g>
</g>
</svg>
