<?xml version="1.0" encoding="iso-8859-1"?>
<!-- Generator: Adobe Illustrator 19.0.0, SVG Export Plug-In . SVG Version: 6.00 Build 0)  -->
<svg version="1.1" id="Layer_1" xmlns="http://www.w3.org/2000/svg" xmlns:xlink="http://www.w3.org/1999/xlink" x="0px" y="0px"
	 viewBox="0 0 512 512" style="enable-background:new 0 0 512 512;" xml:space="preserve">
<rect x="86.204" y="307.785" style="fill:#CAF9F4;" width="47.02" height="29.257"/>
<path style="fill:#4B92B9;" d="M493.714,249.788h-15.673v-57.469h15.673c5.771,0,10.449,4.678,10.449,10.449v36.571
	C504.163,245.11,499.485,249.788,493.714,249.788z"/>
<rect x="156.212" y="51.779" style="fill:#FFFFFF;" width="22.988" height="94.041"/>
<path style="fill:#FFD85C;" d="M178.155,124.922h-20.898c-5.771,0-10.449-4.678-10.449-10.449V83.126
	c0-5.771,4.678-10.449,10.449-10.449h20.898c5.771,0,10.449,4.678,10.449,10.449v31.347
	C188.604,120.244,183.926,124.922,178.155,124.922z"/>
<path style="fill:#79CAE8;" d="M49.633,166.718v141.061h120.163v-52.245c0-11.542,9.356-20.898,20.898-20.898H336.98
	c11.542,0,20.898,9.356,20.898,20.898V401.82h120.163v-256H70.531C58.989,145.82,49.633,155.176,49.633,166.718z"/>
<g>
	<circle style="fill:#FFFFFF;" cx="417.959" cy="221.058" r="22.988"/>
	<circle style="fill:#FFFFFF;" cx="417.959" cy="304.65" r="22.988"/>
</g>
<rect x="70.531" y="433.172" style="fill:#4B92B9;" width="407.51" height="27.052"/>
<path style="fill:#79CAE8;" d="M478.041,433.167H23.51c-8.656,0-15.673-7.018-15.673-15.673l0,0c0-8.656,7.018-15.673,15.673-15.673
	h454.531V433.167z"/>
<path d="M493.714,184.481h-7.837v-46.498H187.037v-7.54c5.603-3.128,9.404-9.112,9.404-15.97V83.126
	c0-6.86-3.801-12.842-9.404-15.97V43.943h-38.661v23.213c-5.603,3.128-9.404,9.112-9.404,15.97v31.347
	c0,6.859,3.801,12.842,9.404,15.97v7.54H70.531c-15.845,0-28.735,12.891-28.735,28.735v148.898h36.571v29.257h23.51v24.815h15.673
	v-24.815h23.51v-29.257h36.571v-60.082c0-7.202,5.859-13.061,13.061-13.061H336.98c7.202,0,13.061,5.859,13.061,13.061v138.449
	H23.51c-12.964,0-23.51,10.547-23.51,23.51s10.546,23.51,23.51,23.51h39.184v27.053h423.184V257.624h7.837
	c10.082,0,18.286-8.204,18.286-18.286v-36.571C512,192.684,503.796,184.481,493.714,184.481z M157.257,117.086
	c-1.44,0-2.612-1.171-2.612-2.612V83.126c0-1.441,1.172-2.612,2.612-2.612h20.898c1.44,0,2.612,1.171,2.612,2.612v31.347
	c0,1.441-1.172,2.612-2.612,2.612H157.257z M171.363,59.616v5.224h-7.314v-5.224H171.363z M164.049,132.759h7.314v5.224h-7.314
	V132.759z M125.388,329.2H94.041v-13.584h31.347V329.2z M15.673,417.494c0-4.322,3.515-7.837,7.837-7.837h446.694v15.673H23.51
	C19.189,425.33,15.673,421.814,15.673,417.494z M470.204,452.383H78.367v-11.38h391.837V452.383z M365.714,393.983V255.534
	c0-15.844-12.89-28.735-28.735-28.735H190.694c-15.845,0-28.735,12.891-28.735,28.735v44.408H117.9v-97.437h-15.673v97.437H57.469
	V166.718c0-7.202,5.859-13.061,13.061-13.061h399.673v240.327H365.714z M496.327,239.339c0,1.441-1.172,2.612-2.612,2.612h-7.837
	v-41.796h7.837c1.44,0,2.612,1.171,2.612,2.612V239.339z"/>
<path d="M417.959,251.877c16.996,0,30.824-13.827,30.824-30.824s-13.828-30.824-30.824-30.824s-30.824,13.827-30.824,30.824
	S400.963,251.877,417.959,251.877z M417.959,205.902c8.354,0,15.151,6.797,15.151,15.151s-6.797,15.151-15.151,15.151
	s-15.151-6.797-15.151-15.151S409.605,205.902,417.959,205.902z"/>
<path d="M417.959,273.82c-16.996,0-30.824,13.827-30.824,30.824s13.828,30.824,30.824,30.824s30.824-13.827,30.824-30.824
	S434.955,273.82,417.959,273.82z M417.959,319.796c-8.354,0-15.151-6.797-15.151-15.151c0-8.354,6.797-15.151,15.151-15.151
	s15.151,6.797,15.151,15.151C433.11,312.999,426.313,319.796,417.959,319.796z"/>
<g>
</g>
<g>
</g>
<g>
</g>
<g>
</g>
<g>
</g>
<g>
</g>
<g>
</g>
<g>
</g>
<g>
</g>
<g>
</g>
<g>
</g>
<g>
</g>
<g>
</g>
<g>
</g>
<g>
</g>
</svg>
